<svg height="512pt" viewBox="0 0 512 512" width="512pt" xmlns="http://www.w3.org/2000/svg" xmlns:xlink="http://www.w3.org/1999/xlink"><linearGradient id="a" gradientUnits="userSpaceOnUse" x1="108.9137936422" x2="401.6148009942" y1="86.904689109" y2="466.9846647722"><stop offset="0" stop-color="#ff5e4e"/><stop offset=".1505" stop-color="#ff5c6d"/><stop offset=".1694" stop-color="#ff5e73"/><stop offset=".2476" stop-color="#ff6385"/><stop offset=".3026" stop-color="#ff658c"/><stop offset=".3685" stop-color="#e4729f"/><stop offset=".4329" stop-color="#d17cad"/><stop offset=".4772" stop-color="#ca7fb2"/><stop offset=".5528" stop-color="#9d6cff"/><stop offset=".5934" stop-color="#9870ff" stop-opacity=".988235"/><stop offset=".6432" stop-color="#897afe" stop-opacity=".972549"/><stop offset=".6979" stop-color="#708cfe" stop-opacity=".952941"/><stop offset=".7556" stop-color="#4da4fd" stop-opacity=".933333"/><stop offset=".8022" stop-color="#2cbcfc" stop-opacity=".917647"/><stop offset="1" stop-color="#00c7ff"/></linearGradient><linearGradient id="b" gradientTransform="matrix(2.961868 0 0 -2.961868 1492.726491 21375.728536)" gradientUnits="userSpaceOnUse" x1="-462.4641" x2="-364.4501" y1="7178.2817" y2="7051.0664"><stop offset="0" stop-color="#ff5e4e"/><stop offset=".249" stop-color="#ff5c6d"/><stop offset=".3765" stop-color="#ff658c"/><stop offset=".497" stop-color="#ca7fb2"/><stop offset=".6267" stop-color="#9d6cff"/><stop offset=".7628" stop-color="#2cbcfc" stop-opacity=".917647"/><stop offset="1" stop-color="#00c7ff"/></linearGradient><path d="m512 256c0 141.386719-114.613281 256-256 256s-256-114.613281-256-256 114.613281-256 256-256 256 114.613281 256 256zm0 0" fill="#f1f1f1"/><path d="m431.292969 111.285156c-46.824219-46.824218-109.074219-72.609375-175.292969-72.609375s-128.46875 25.785157-175.292969 72.609375c-46.824219 46.824219-72.609375 109.078125-72.609375 175.292969 0 17.515625 1.824219 34.746094 5.34375 51.492187 28.253906 83.542969 98.464844 147.742188 185.550782 167.550782-97.285157-25.339844-169.3125-113.933594-169.3125-219.042969 0-124.792969 101.527343-226.316406 226.320312-226.316406s226.320312 101.523437 226.320312 226.316406c0 105.109375-72.027343 193.703125-169.3125 219.042969 87.085938-19.804688 157.296876-84.007813 185.550782-167.546875 3.523437-16.75 5.34375-33.980469 5.34375-51.496094 0-66.214844-25.785156-128.46875-72.609375-175.292969zm0 0" fill="url(#a)"/><path d="m351.28125 420.746094c14.980469-4.496094 25.558594-15.402344 29.886719-30.804688l1.277343-4.527344.167969-121.441406c.125-90.945312.003907-122.007812-.488281-123.703125-.519531-1.796875-1.34375-3.304687-2.421875-4.496093-1.585937-1-3.492187-1.527344-5.652344-1.523438-1.488281 0-6.660156.734375-11.484375 1.632812-21.34375 3.976563-147.152344 29.621094-149.300781 30.433594-3.324219 1.257813-6.617187 4.246094-8.179687 7.417969l-1.324219 2.6875s-.625 190.351563-1.589844 192.492187c-1.464844 3.261719-4.71875 6.351563-7.71875 7.335938-1.421875.46875-7.039063 1.757812-12.492187 2.867188-25.242188 5.140624-34.617188 8.84375-42.546876 16.8125-4.503906 4.523437-7.839843 10.699218-9.28125 17.179687-1.378906 6.195313-.917968 15.464844 1.046876 21.101563 2.058593 5.894531 5.371093 10.929687 9.703124 14.890624 3.9375 3.105469 8.585938 5.417969 13.8125 6.789063 11.554688 3.027344 33.1875-.339844 44.246094-6.886719 4.625-2.738281 10.574219-8.480468 13.667969-13.203125 1.226563-1.871093 3.066406-5.632812 4.097656-8.367187 3.601563-9.574219 3.714844-180.097656 4.175781-182.246094.78125-3.644531 3.214844-6.3125 6.570313-7.21875 3.023437-.8125 124.164063-25.324219 127.574219-25.8125 3-.425781 5.832031.5625 7.378906 2.511719.917969.503906 1.691406 1.183593 2.234375 2.019531.984375 1.5 1.042969 4.464844 1.191406 58.453125.167969 62.140625.242188 60.683594-3.058593 64.605469-2.402344 2.851562-5.398438 3.957031-17.710938 6.527344-18.734375 3.914062-25.144531 5.773437-32.320312 9.355468-8.957032 4.480469-13.933594 9.386719-17.777344 17.535156-2.71875 5.765626-3.734375 10.085938-3.726563 15.824219.015625 10.261719 3.476563 18.277344 11.277344 26.125.71875.722657 1.425781 1.394531 2.136719 2.027344 3.929687 3.109375 7.9375 4.984375 12.976562 6.171875 7.597656 1.792969 23.066406.613281 33.652344-2.566406zm0 0" fill="url(#b)"/></svg>